<?xml version="1.0" standalone="no"?>
<!DOCTYPE svg PUBLIC "-//W3C//DTD SVG 20010904//EN"
 "http://www.w3.org/TR/2001/REC-SVG-20010904/DTD/svg10.dtd">
<svg version="1.0" xmlns="http://www.w3.org/2000/svg"
 width="800.000000pt" height="800.000000pt" viewBox="0 0 800.000000 800.000000"
 preserveAspectRatio="xMidYMid meet">
<metadata>
Created by potrace 1.14, written by Peter Selinger 2001-2017
</metadata>
<g transform="translate(0.000000,800.000000) scale(0.100000,-0.100000)"
fill="#000000" stroke="none">
<path d="M3395 6870 c-81 -18 -162 -80 -191 -146 -7 -17 -38 -128 -68 -245
-111 -431 -239 -939 -251 -989 -31 -138 -121 -468 -129 -477 -9 -10 -882 -338
-1166 -438 -142 -50 -427 -157 -465 -175 -116 -53 -177 -196 -136 -318 29 -84
60 -114 238 -226 93 -59 175 -111 183 -116 76 -50 348 -222 360 -227 8 -4 53
-32 100 -62 148 -95 200 -128 435 -276 127 -80 234 -146 238 -148 10 -3 13
-37 21 -277 7 -162 10 -243 21 -510 3 -74 8 -189 10 -255 3 -66 7 -174 10
-240 3 -66 7 -187 10 -270 3 -82 8 -170 10 -195 21 -179 217 -286 378 -206 29
14 72 43 97 65 48 41 697 582 770 641 24 19 48 40 54 45 6 6 36 30 66 55 30
25 57 47 60 50 3 3 70 59 150 124 80 66 150 126 157 134 16 20 32 16 418 -94
182 -52 339 -96 350 -99 11 -2 218 -61 460 -131 392 -113 449 -127 520 -128
97 -1 142 19 203 91 66 77 79 172 38 283 -24 67 -189 479 -205 515 -7 15 -357
896 -412 1037 -6 15 -8 33 -3 40 23 42 260 394 267 396 4 2 7 8 7 13 0 5 6 17
14 26 8 10 163 242 346 516 204 305 337 515 346 543 48 160 -75 332 -241 337
-45 1 -235 -9 -340 -18 -22 -2 -87 -6 -145 -10 -58 -3 -127 -8 -155 -10 -27
-2 -95 -7 -150 -10 -55 -3 -125 -8 -155 -10 -30 -2 -102 -6 -160 -10 -58 -3
-127 -8 -155 -10 -27 -2 -90 -7 -140 -9 -141 -9 -256 -16 -303 -20 l-42 -4
-96 121 c-53 67 -109 138 -124 157 -16 19 -85 107 -154 195 -70 88 -132 167
-139 175 -7 8 -77 98 -157 200 -79 102 -149 190 -155 196 -5 6 -68 86 -140
176 -71 91 -143 174 -160 185 -57 37 -142 55 -200 43z"/>
</g>
</svg>
